<svg width="12" height="11" viewBox="0 0 12 11" fill="none" xmlns="http://www.w3.org/2000/svg">
<path d="M3.09783 0.470497L10.697 0.470497C10.7755 0.470453 10.8532 0.485875 10.9257 0.515881C10.9982 0.545887 11.0641 0.589889 11.1195 0.64537C11.175 0.70085 11.219 0.766722 11.249 0.83922C11.279 0.911716 11.2945 0.989417 11.2944 1.06788V8.66709C11.2944 8.82553 11.2315 8.97747 11.1195 9.0895C11.0074 9.20153 10.8555 9.26447 10.697 9.26447C10.5386 9.26447 10.3867 9.20153 10.2746 9.0895C10.1626 8.97747 10.0997 8.82553 10.0997 8.66709L10.1002 2.50909L1.83129 10.778C1.71932 10.89 1.56746 10.9529 1.40911 10.9529C1.25077 10.9529 1.0989 10.89 0.986936 10.778C0.874967 10.666 0.812063 10.5142 0.812063 10.3558C0.812063 10.1975 0.874967 10.0456 0.986936 9.93363L9.25583 1.66473L3.09783 1.66526C2.93939 1.66526 2.78744 1.60232 2.67541 1.49029C2.56338 1.37826 2.50044 1.22632 2.50044 1.06788C2.50044 0.909444 2.56338 0.757496 2.67541 0.645465C2.78744 0.533435 2.93939 0.470497 3.09783 0.470497Z" fill="black"/>
</svg>
