<svg width="14" height="16" viewBox="0 0 14 16" fill="none" xmlns="http://www.w3.org/2000/svg">
<path d="M1.87413 1.63137L11.531 0.923273C11.6307 0.915906 11.7315 0.928216 11.8275 0.959497C11.9235 0.990778 12.0128 1.04042 12.0905 1.10558C12.1682 1.17074 12.2326 1.25014 12.28 1.33925C12.3275 1.42836 12.3571 1.52542 12.3672 1.62488L13.3468 11.258C13.3672 11.4589 13.3068 11.6574 13.1789 11.8098C13.0509 11.9623 12.866 12.0562 12.6646 12.071C12.4633 12.0857 12.2621 12.0201 12.1053 11.8885C11.9485 11.757 11.8489 11.5702 11.8285 11.3694L11.0354 3.56312L1.59331 14.8157C1.46546 14.9681 1.28059 15.062 1.07936 15.0767C0.878136 15.0915 0.677045 15.0259 0.520324 14.8944C0.363604 14.7629 0.264091 14.5762 0.24368 14.3755C0.223268 14.1748 0.283629 13.9764 0.411483 13.824L9.85352 2.57144L2.02814 3.14592C1.8268 3.16068 1.6256 3.09505 1.46879 2.96348C1.31198 2.8319 1.21241 2.64515 1.19199 2.44431C1.17157 2.24347 1.23196 2.04499 1.35989 1.89253C1.48781 1.74007 1.67279 1.64613 1.87413 1.63137Z" fill="#1F2027"/>
</svg>
