<svg width="10" height="10" viewBox="0 0 10 10" fill="none" xmlns="http://www.w3.org/2000/svg">
<path d="M2.04582 0.754327L8.48377 0.282263C8.55024 0.277352 8.61739 0.285558 8.68139 0.306412C8.74538 0.327267 8.80497 0.360361 8.85674 0.403802C8.90851 0.447242 8.95145 0.500177 8.9831 0.55958C9.01475 0.618984 9.03449 0.683692 9.0412 0.750003L9.69424 7.17211C9.70786 7.30601 9.6676 7.43833 9.58231 7.53996C9.49703 7.6416 9.37371 7.70423 9.23949 7.71407C9.10526 7.72391 8.97113 7.68016 8.86659 7.59245C8.76205 7.50473 8.69567 7.38023 8.68206 7.24633L8.15331 2.04216L1.85862 9.54388C1.77338 9.64546 1.65013 9.70806 1.51598 9.71789C1.38183 9.72773 1.24777 9.684 1.14329 9.59633C1.03881 9.50867 0.972468 9.38423 0.95886 9.25041C0.945252 9.11659 0.985493 8.98435 1.07073 8.88277L7.36542 1.38104L2.1485 1.76403C2.01427 1.77387 1.88014 1.73012 1.7756 1.6424C1.67106 1.55468 1.60468 1.43018 1.59107 1.29629C1.57745 1.16239 1.61771 1.03007 1.703 0.928434C1.78828 0.826797 1.9116 0.764169 2.04582 0.754327Z" fill="#1F3DD9"/>
</svg>
